<svg width="49" height="42" viewBox="0 0 49 42" fill="none" xmlns="http://www.w3.org/2000/svg">
<g id="Group 1175">
<path id="Vector" d="M27.0444 18.8195L26.8005 18.9395C26.747 18.9679 26.702 19.01 26.67 19.0614C26.638 19.1127 26.6201 19.1717 26.6181 19.2322V19.9482C26.6146 19.9715 26.6179 19.9953 26.6276 20.0168C26.6372 20.0382 26.6528 20.0565 26.6726 20.0693C26.6923 20.0821 26.7153 20.0891 26.7388 20.0892C26.7624 20.0894 26.7855 20.0828 26.8054 20.0702L27.0444 19.9531C27.0985 19.9253 27.1442 19.8835 27.1766 19.832C27.2091 19.7805 27.2271 19.7213 27.2288 19.6604V18.9444C27.2317 18.9211 27.2281 18.8975 27.2185 18.8762C27.2088 18.8549 27.1934 18.8366 27.174 18.8235C27.1546 18.8103 27.132 18.8028 27.1086 18.8018C27.0852 18.8007 27.0619 18.8062 27.0414 18.8176L27.0444 18.8195ZM25.9527 19.3746L25.7118 19.4897C25.658 19.518 25.6125 19.5599 25.58 19.6113C25.5475 19.6626 25.529 19.7216 25.5264 19.7824V20.5014C25.5227 20.5248 25.5257 20.5488 25.5352 20.5706C25.5446 20.5924 25.5601 20.611 25.5797 20.6243C25.5994 20.6377 25.6224 20.6451 25.6462 20.6458C25.6699 20.6464 25.6933 20.6403 25.7137 20.6282L25.9527 20.5082C26.0076 20.4811 26.0541 20.4395 26.0871 20.3879C26.1201 20.3363 26.1384 20.2767 26.14 20.2155V19.4995C26.1431 19.476 26.1394 19.4521 26.1294 19.4306C26.1195 19.4091 26.1036 19.3909 26.0836 19.3781C26.0637 19.3654 26.0405 19.3585 26.0168 19.3584C25.9931 19.3583 25.9699 19.3649 25.9498 19.3775L25.9527 19.3746ZM24.3245 20.1931L24.0816 20.3131C24.0275 20.341 23.9818 20.3828 23.9492 20.4342C23.9166 20.4857 23.8984 20.5449 23.8963 20.6057V21.3218C23.8926 21.3452 23.8957 21.3692 23.9052 21.3909C23.9147 21.4126 23.9302 21.4311 23.9499 21.4442C23.9696 21.4574 23.9927 21.4646 24.0164 21.465C24.0401 21.4655 24.0634 21.4591 24.0836 21.4467L24.3245 21.3267C24.3776 21.2989 24.4225 21.2578 24.4547 21.2073C24.4868 21.1568 24.5052 21.0987 24.5079 21.0389V20.3228C24.5079 20.2077 24.4231 20.1511 24.3226 20.195L24.3245 20.1931ZM23.231 20.7482L22.9919 20.8652C22.9375 20.8929 22.8914 20.9346 22.8584 20.986C22.8255 21.0375 22.8069 21.0968 22.8046 21.1579V21.8759C22.8005 21.9003 22.8037 21.9253 22.8137 21.9479C22.8237 21.9704 22.8401 21.9896 22.8609 22.0029C22.8817 22.0162 22.9059 22.0231 22.9306 22.0227C22.9553 22.0223 22.9794 22.0147 22.9998 22.0008L23.2388 21.8837C23.2926 21.8554 23.338 21.8135 23.3705 21.7621C23.4031 21.7108 23.4215 21.6518 23.4241 21.591V20.875C23.4279 20.8513 23.4247 20.827 23.4149 20.805C23.4052 20.7831 23.3894 20.7644 23.3693 20.7512C23.3492 20.738 23.3258 20.7309 23.3017 20.7307C23.2777 20.7305 23.2542 20.7373 23.2339 20.7501L23.231 20.7482ZM21.6515 21.4632L21.4077 21.5832C21.3535 21.6111 21.3077 21.6529 21.2751 21.7043C21.2425 21.7558 21.2243 21.815 21.2223 21.8759V22.592C21.2191 22.6153 21.2226 22.639 21.2324 22.6604C21.2423 22.6818 21.258 22.7 21.2777 22.7127C21.2975 22.7255 21.3204 22.7324 21.344 22.7326C21.3675 22.7328 21.3906 22.7263 21.4106 22.7139L21.6515 22.5988C21.7055 22.5708 21.751 22.5289 21.7834 22.4774C21.8158 22.426 21.8339 22.3669 21.8359 22.3061V21.5901C21.8359 21.475 21.7511 21.4184 21.6486 21.4632H21.6515ZM20.5599 22.0183L20.3189 22.1354C20.2644 22.1631 20.2182 22.2048 20.1851 22.2562C20.152 22.3076 20.1332 22.367 20.1307 22.4281V23.1441C20.1274 23.1677 20.1308 23.1918 20.1407 23.2135C20.1505 23.2352 20.1663 23.2537 20.1862 23.2668C20.2062 23.2799 20.2294 23.287 20.2533 23.2874C20.2771 23.2878 20.3006 23.2814 20.3209 23.269L20.5599 23.1519C20.6141 23.1241 20.6599 23.0823 20.6925 23.0308C20.725 22.9794 20.7433 22.9201 20.7453 22.8593V22.1461C20.749 22.1227 20.7459 22.0988 20.7364 22.0771C20.7269 22.0554 20.7113 22.0368 20.6916 22.0237C20.6719 22.0105 20.6488 22.0033 20.6251 22.0029C20.6015 22.0025 20.5781 22.0088 20.558 22.0213L20.5599 22.0183ZM18.8556 22.7773L18.6117 22.8963C18.5576 22.9242 18.5119 22.966 18.4793 23.0175C18.4467 23.0689 18.4285 23.1281 18.4264 23.189V23.905C18.4225 23.9284 18.4255 23.9525 18.435 23.9742C18.4446 23.9959 18.4603 24.0144 18.4801 24.0273C18.5 24.0403 18.5232 24.0471 18.547 24.0471C18.5707 24.047 18.5939 24.04 18.6137 24.027L18.8556 23.9099C18.9095 23.8818 18.955 23.8399 18.9874 23.7885C19.0197 23.7371 19.0379 23.678 19.04 23.6173V22.9012C19.0433 22.8779 19.04 22.8541 19.0305 22.8325C19.0209 22.8109 19.0055 22.7925 18.986 22.7793C18.9664 22.7661 18.9436 22.7586 18.92 22.7577C18.8965 22.7569 18.8731 22.7626 18.8527 22.7744L18.8556 22.7773ZM17.764 23.3304L17.5269 23.4465C17.473 23.4747 17.4275 23.5166 17.3949 23.5679C17.3624 23.6193 17.344 23.6784 17.3416 23.7392V24.4582C17.3381 24.4816 17.3415 24.5055 17.3511 24.5272C17.3608 24.5488 17.3764 24.5672 17.3961 24.5803C17.4159 24.5934 17.4389 24.6006 17.4626 24.6011C17.4863 24.6016 17.5096 24.5953 17.5299 24.5831L17.7689 24.465C17.8233 24.4376 17.8692 24.3958 17.9017 24.3443C17.9341 24.2927 17.952 24.2333 17.9532 24.1723V23.4543C17.9565 23.4311 17.9531 23.4074 17.9434 23.386C17.9337 23.3646 17.9182 23.3464 17.8985 23.3336C17.8789 23.3207 17.856 23.3136 17.8325 23.3133C17.8091 23.3129 17.786 23.3192 17.7659 23.3314L17.764 23.3304ZM19.4146 25.2279C16.605 26.379 12.256 28.2121 10.264 28.1936C9.9711 28.1951 9.67904 28.1624 9.39379 28.096C9.34989 28.6452 9.65328 28.854 9.92936 28.8998C15.0666 29.7564 24.585 25.8093 30.3515 22.3295C33.8635 20.2116 35.0546 18.0157 35.1834 16.5738C33.4596 19.0449 30.7573 20.5814 19.4146 25.2289V25.2279ZM22.0145 15.3875C21.9408 15.4549 21.8537 15.5058 21.7589 15.5368C21.2613 15.7026 20.676 15.2929 20.4526 14.6208C20.4243 14.53 20.4021 14.4374 20.3863 14.3437V14.3554C18.7005 15.3163 17.9474 15.3846 17.6118 15.2793C17.4021 15.9621 16.5172 17.3572 15.5914 18.0108C17.0753 17.8957 21.712 15.9329 22.0145 15.3953V15.3875ZM21.7218 14.9749C22.0145 14.8773 22.7432 14.0969 22.6095 13.694C22.4759 13.2911 21.5364 13.4355 21.2438 13.533C20.9511 13.6306 20.8614 14.012 20.995 14.411C21.1287 14.81 21.4311 15.0705 21.7257 14.9729L21.7218 14.9749ZM29.0384 17.1679C30.0139 16.8421 31.4187 16.4216 31.8421 16.3728C31.4049 16.3029 30.9643 16.2563 30.5222 16.2333C29.4647 16.1943 29.0764 16.4733 29.0764 16.4733C29.0764 16.4733 28.8813 17.2206 29.0384 17.1679ZM35.7072 19.6673C35.6875 19.6049 35.6719 19.5414 35.6604 19.477V19.4819C35.3065 19.6904 34.9354 19.8682 34.5512 20.0136C34.0098 20.6965 32.8733 21.6506 32.3387 22.0086C33.364 21.9276 36.5706 20.5735 36.7803 20.1999C36.7294 20.2445 36.6695 20.2778 36.6047 20.2975C36.2614 20.4145 35.8575 20.1316 35.7014 19.6663L35.7072 19.6673ZM36.6594 19.8682C36.4574 19.9365 36.2477 19.7531 36.1531 19.478C36.0584 19.2029 36.1238 18.9346 36.3277 18.8693C36.5316 18.8039 37.1832 18.7073 37.273 18.9815C37.3627 19.2556 36.8642 19.798 36.6594 19.8663V19.8682Z" fill="#4185E2"/>
<path id="Vector_2" d="M37.6232 21.1736C38.1188 20.6858 38.2846 19.7756 37.9851 18.8742C37.632 17.8196 36.7667 17.1416 35.9716 17.2519C36.0107 17.0247 36.0004 16.7918 35.9414 16.569C35.877 16.327 35.7638 15.7973 35.1024 15.811C34.441 15.8246 32.0528 15.9134 31.9631 15.9085C31.8733 15.9037 30.371 15.5886 29.2715 15.8705C28.9564 15.9524 27.655 16.5973 26.063 17.4431C26.0401 17.4265 26.0152 17.413 25.9888 17.4031C25.9888 17.4031 24.8991 17.087 23.1851 16.5787C23.7499 15.8773 23.9187 14.7252 23.5363 13.5711C23.0075 11.981 21.6262 11.0123 20.4516 11.4054C19.5736 11.6981 19.0614 12.6736 19.0771 13.8092C18.2342 14.2072 17.4186 14.6403 17.1913 14.8081C17.1913 14.8081 4.80967 10.5255 4.71016 10.4757L4.66626 10.4601C8.72649 4.61755 15.4675 0.795349 23.1041 0.795349C35.3794 0.795349 45.3456 10.6698 45.5554 22.9296C44.2569 22.5501 39.4767 21.7238 37.6232 21.1736Z" fill="#4185E2"/>
<path id="Vector_3" d="M47.7319 24.711L45.4345 25.5568C45.2902 26.9917 45.0059 28.4091 44.5858 29.7887C44.237 30.8692 43.8262 31.9288 43.3556 32.9621C29.6482 28.9887 18.5504 32.5983 10.6123 41.9001C6.33259 39.0896 0.650024 32.7826 0.650024 23.3227V23.2457C0.650024 23.0379 0.654902 22.8252 0.660755 22.6174C0.76019 19.2756 1.60406 15.9982 3.13084 13.0239C2.58161 12.6971 1.16511 11.8406 1.16511 11.8406C1.16511 11.8406 0.369067 11.4503 0.76709 11.0884C1.08122 10.7957 2.23822 10.0104 3.06158 10.2631C3.0967 10.2738 3.3718 10.3606 3.87909 10.5177C3.284 10.705 2.60112 11.1206 2.39625 11.3118C1.9953 11.6767 2.75038 12.1332 2.75038 12.1332C2.94842 12.272 3.15463 12.3987 3.3679 12.5127C6.00871 13.9653 15.8822 19.6879 18.4479 21.1561C18.4479 21.1561 13.5565 24.2329 13.1517 24.4329C11.7342 25.149 11.5186 23.991 11.4669 23.9686C11.3869 23.9481 10.6601 21.6136 10.4592 21.5551C10.2582 21.4965 9.43191 22.1404 9.30021 22.475C9.23485 22.6506 9.05632 25.109 8.96462 26.2123C7.79396 26.1684 6.6672 26.1245 6.47014 26.1148C6.20679 26.1049 5.94556 26.1652 5.71312 26.2894C5.56326 26.3735 5.42869 26.4824 5.31509 26.6113C5.18339 26.7577 5.22729 26.9879 5.47216 27.064C5.58239 27.0893 7.65251 27.6493 8.83292 27.9625C8.82316 28.142 8.82316 28.4161 8.82316 28.4161C8.80073 29.0775 9.16558 29.4424 9.62311 29.5194C15.0881 30.0618 20.4927 28.1205 28.539 24.1403C33.6606 24.5646 43.6141 25.3109 43.6141 25.3109C43.6141 25.3109 44.5497 25.0036 45.5067 24.6788C46.0657 24.4885 46.6325 24.2885 47.0227 24.149C47.2161 24.0883 47.395 23.9887 47.5485 23.8564C47.9251 23.9666 48.1514 24.032 48.1738 24.0427C48.525 24.1773 48.3377 24.4885 47.7319 24.711Z" fill="#4185E2"/>
<path id="Vector_4" d="M40.9069 8.14712V7.36668H40.6055V7.23401H41.3605V7.36181H41.0562V8.14224L40.9069 8.14712Z" fill="#4185E2"/>
<path id="Vector_5" d="M41.4971 8.14712V7.23401H41.7293L41.9068 7.78714C41.9068 7.80275 41.9175 7.82129 41.9224 7.84178C41.9273 7.86226 41.9331 7.8808 41.938 7.89933C41.9425 7.91571 41.9461 7.93232 41.9487 7.94909H41.9595C41.9618 7.93297 41.9651 7.91701 41.9692 7.90128C41.9692 7.88275 41.978 7.86324 41.9829 7.84275C41.9878 7.82226 41.9926 7.80275 41.9985 7.78519L42.1761 7.23401H42.4034V8.14615H42.256V7.64667C42.256 7.6135 42.256 7.57838 42.256 7.54228C42.256 7.50619 42.256 7.47302 42.256 7.44473C42.256 7.41644 42.256 7.3979 42.256 7.3901H42.2453C42.2453 7.39985 42.2395 7.41644 42.2326 7.43985C42.2258 7.46326 42.219 7.48863 42.2121 7.51497C42.2053 7.54131 42.1985 7.56472 42.1926 7.58423L42.0131 8.14712H41.8814L41.6971 7.58618C41.6912 7.56862 41.6854 7.54911 41.6795 7.5257C41.6736 7.50228 41.6668 7.47985 41.661 7.45546C41.6551 7.43107 41.6493 7.40961 41.6454 7.3901H41.6346C41.6346 7.41156 41.6346 7.4379 41.6346 7.46912C41.6346 7.50033 41.6346 7.53058 41.6346 7.56667C41.6346 7.60277 41.6346 7.62618 41.6346 7.65057V8.15102L41.4971 8.14712Z" fill="#4185E2"/>
</g>
</svg>
